<svg width="417" height="417" viewBox="0 0 417 417" fill="none" xmlns="http://www.w3.org/2000/svg">
<path d="M84.3964 79.9011H85.8964C85.8964 79.4887 85.7266 79.0945 85.4269 78.8111L84.3964 79.9011ZM2 2L3.03051 0.910023C2.59521 0.498474 1.95678 0.385382 1.40661 0.622363C0.856425 0.859344 0.5 1.40095 0.5 2L2 2ZM84.3964 337.098H82.8964C82.8964 337.927 83.568 338.598 84.3964 338.598V337.098ZM147.175 337.098L148.205 336.008C147.927 335.745 147.558 335.598 147.175 335.598V337.098ZM229.571 414.999V416.499C230.185 416.499 230.738 416.125 230.965 415.554C231.192 414.983 231.048 414.332 230.602 413.91L229.571 414.999ZM2 414.999H0.5C0.5 415.828 1.17157 416.499 2 416.499L2 414.999ZM170.572 253.566H169.072C169.072 253.979 169.242 254.374 169.543 254.658L170.572 253.566ZM170.572 157.446L171.601 156.355C171.165 155.944 170.527 155.832 169.977 156.069C169.428 156.306 169.072 156.848 169.072 157.446H170.572ZM341.802 414.999L340.773 416.09C341.051 416.353 341.42 416.499 341.802 416.499V414.999ZM415 414.999V416.499C415.828 416.499 416.5 415.827 416.5 414.999H415ZM415 18.1953H416.5C416.5 17.3669 415.828 16.6953 415 16.6953V18.1953ZM341.802 18.1953V16.6953C340.974 16.6953 340.302 17.3669 340.302 18.1953H341.802ZM341.802 318.879L340.773 319.97C341.209 320.381 341.847 320.493 342.396 320.256C342.946 320.019 343.302 319.477 343.302 318.879H341.802ZM85.4269 78.8111L3.03051 0.910023L0.96949 3.08998L83.3659 80.9911L85.4269 78.8111ZM85.8964 337.098V79.9011H82.8964V337.098H85.8964ZM147.175 335.598H84.3964V338.598H147.175V335.598ZM230.602 413.91L148.205 336.008L146.144 338.188L228.541 416.089L230.602 413.91ZM2 416.499H229.571V413.499H2V416.499ZM0.5 2V414.999H3.5V2H0.5ZM172.072 253.566V157.446H169.072V253.566H172.072ZM342.831 413.907L171.601 252.475L169.543 254.658L340.773 416.09L342.831 413.907ZM415 413.499H341.802V416.499H415V413.499ZM413.5 18.1953V414.999H416.5V18.1953H413.5ZM341.802 19.6953H415V16.6953H341.802V19.6953ZM343.302 315.182V18.1953H340.302V315.182H343.302ZM343.302 318.879V315.182H340.302V318.879H343.302ZM169.543 158.538L340.773 319.97L342.831 317.787L171.601 156.355L169.543 158.538Z" fill="#314360"/>
</svg>
