<svg width="36" height="31" viewBox="0 0 36 31" fill="black" xmlns="http://www.w3.org/2000/svg">
<path d="M30.4954 2.90446C28.1651 1.73072 25.6734 0.87769 23.0683 0.391968C22.7484 1.01465 22.3746 1.85216 22.117 2.5184C19.3477 2.07008 16.604 2.07008 13.8857 2.5184C13.6281 1.85216 13.2458 1.01465 12.923 0.391968C10.3152 0.87769 7.82063 1.73385 5.49029 2.91068C0.789964 10.557 -0.484217 18.0134 0.152875 25.364C3.27038 27.8702 6.29161 29.3926 9.26186 30.3889C9.99523 29.3023 10.6493 28.1473 11.2128 26.93C10.1396 26.491 9.11179 25.9493 8.14061 25.3204C8.39826 25.1149 8.65028 24.9001 8.89377 24.679C14.8173 27.6616 21.2533 27.6616 27.1061 24.679C27.3525 24.9001 27.6044 25.1149 27.8593 25.3204C26.8852 25.9524 25.8546 26.4941 24.7814 26.9331C25.3449 28.1473 25.9962 29.3055 26.7323 30.392C29.7054 29.3957 32.7295 27.8733 35.847 25.364C36.5945 16.8428 34.57 9.45488 30.4954 2.90446ZM12.0198 20.8434C10.2416 20.8434 8.78333 19.0564 8.78333 16.8802C8.78333 14.7039 10.2104 12.9138 12.0198 12.9138C13.8291 12.9138 15.2873 14.7008 15.2562 16.8802C15.259 19.0564 13.8291 20.8434 12.0198 20.8434ZM23.9801 20.8434C22.2019 20.8434 20.7437 19.0564 20.7437 16.8802C20.7437 14.7039 22.1707 12.9138 23.9801 12.9138C25.7894 12.9138 27.2477 14.7008 27.2165 16.8802C27.2165 19.0564 25.7894 20.8434 23.9801 20.8434Z" fill="white"/>
</svg>
