<svg width="30" height="31" viewBox="0 0 30 31" fill="black" xmlns="http://www.w3.org/2000/svg">
<path fill-rule="evenodd" clip-rule="evenodd" d="M15 0.391968C23.2845 0.391968 30 7.27685 30 15.7713C30 22.5648 25.707 28.3279 19.7505 30.3634C18.99 30.5149 18.72 30.0346 18.72 29.6251C18.72 29.1181 18.738 27.4621 18.738 25.4041C18.738 23.9701 18.258 23.0342 17.7195 22.5572C21.06 22.1762 24.57 20.8756 24.57 14.9686C24.57 13.2886 23.988 11.9177 23.025 10.8407C23.181 10.4522 23.6955 8.88789 22.878 6.76989C22.878 6.76989 21.621 6.3578 18.7575 8.34679C17.559 8.00629 16.275 7.83497 15 7.82897C13.725 7.83497 12.4425 8.00629 11.2455 8.34679C8.379 6.3578 7.119 6.76989 7.119 6.76989C6.3045 8.88789 6.819 10.4522 6.9735 10.8407C6.015 11.9177 5.4285 13.2886 5.4285 14.9686C5.4285 20.8606 8.931 22.1812 12.2625 22.5697C11.8335 22.9537 11.445 23.6311 11.31 24.6256C10.455 25.0186 8.283 25.6987 6.945 23.3482C6.945 23.3482 6.1515 21.8705 4.6455 21.7625C4.6455 21.7625 3.183 21.7431 4.5435 22.6971C4.5435 22.6971 5.526 23.1696 6.2085 24.9471C6.2085 24.9471 7.089 27.6921 11.262 26.7621C11.2695 28.0476 11.283 29.2591 11.283 29.6251C11.283 30.0316 11.007 30.5073 10.2585 30.3648C4.2975 28.3323 0 22.5663 0 15.7713C0 7.27685 6.717 0.391968 15 0.391968Z" fill="white"/>
</svg>
