<svg width="30" height="31" viewBox="0 0 30 31" fill="black" xmlns="http://www.w3.org/2000/svg">
<path fill-rule="evenodd" clip-rule="evenodd" d="M0 13.3359C0 8.75366 0 6.46254 0.891764 4.71235C1.67618 3.17283 2.92784 1.92118 4.46736 1.13676C6.21755 0.244995 8.50868 0.244995 13.0909 0.244995H16.9091C21.4913 0.244995 23.7825 0.244995 25.5326 1.13676C27.0722 1.92118 28.3238 3.17283 29.1082 4.71235C30 6.46254 30 8.75366 30 13.3359V17.1541C30 21.7363 30 24.0275 29.1082 25.7776C28.3238 27.3171 27.0722 28.5688 25.5326 29.3532C23.7825 30.245 21.4913 30.245 16.9091 30.245H13.0909C8.50868 30.245 6.21755 30.245 4.46736 29.3532C2.92784 28.5688 1.67618 27.3171 0.891764 25.7776C0 24.0275 0 21.7363 0 17.1541V13.3359ZM13.0909 2.97227H16.9091C19.2453 2.97227 20.8332 2.9744 22.0608 3.07468C23.2566 3.17237 23.868 3.34944 24.2946 3.56677C25.3208 4.08973 26.1552 4.92416 26.6782 5.9505C26.8956 6.37705 27.0727 6.9885 27.1703 8.1842C27.2706 9.4117 27.2728 10.9998 27.2728 13.3359V17.1541C27.2728 19.4903 27.2706 21.0782 27.1703 22.3058C27.0727 23.5015 26.8956 24.113 26.6782 24.5395C26.1552 25.5658 25.3208 26.4002 24.2946 26.9232C23.868 27.1405 23.2566 27.3177 22.0608 27.4153C20.8332 27.5155 19.2453 27.5177 16.9091 27.5177H13.0909C10.7548 27.5177 9.16671 27.5155 7.93921 27.4153C6.74352 27.3177 6.13206 27.1405 5.70551 26.9232C4.67917 26.4002 3.84474 25.5658 3.32178 24.5395C3.10444 24.113 2.92738 23.5015 2.82968 22.3058C2.7294 21.0782 2.72728 19.4903 2.72728 17.1541V13.3359C2.72728 10.9998 2.7294 9.4117 2.82968 8.1842C2.92738 6.9885 3.10444 6.37705 3.32178 5.9505C3.84474 4.92416 4.67917 4.08973 5.70551 3.56677C6.13206 3.34944 6.74352 3.17237 7.93921 3.07468C9.16671 2.9744 10.7548 2.97227 13.0909 2.97227ZM23.1818 5.69953C22.4287 5.69953 21.8182 6.31006 21.8182 7.06317C21.8182 7.81628 22.4287 8.4268 23.1818 8.4268C23.935 8.4268 24.5455 7.81628 24.5455 7.06317C24.5455 6.31006 23.935 5.69953 23.1818 5.69953ZM15 23.4269C19.5187 23.4269 23.1818 19.7637 23.1818 15.2451C23.1818 10.7264 19.5187 7.06324 15 7.06324C10.4813 7.06324 6.81816 10.7264 6.81816 15.2451C6.81816 19.7637 10.4813 23.4269 15 23.4269ZM15 20.6996C18.0124 20.6996 20.4545 18.2575 20.4545 15.2451C20.4545 12.2326 18.0124 9.79051 15 9.79051C11.9875 9.79051 9.54544 12.2326 9.54544 15.2451C9.54544 18.2575 11.9875 20.6996 15 20.6996Z" fill="white"/>
</svg>
